<svg xmlns="http://www.w3.org/2000/svg" width="1920.001" height="845.001" viewBox="0 0 1920.001 845.001">
  <g id="Group_93" data-name="Group 93" transform="translate(0.001 -916)">
    <rect id="Rectangle_81" data-name="Rectangle 81" width="1920" height="845" transform="translate(0 916)" fill="#e9e9e9"/>
    <path id="Intersection_3" data-name="Intersection 3" d="M14106,9315V8912a452.634,452.634,0,0,1,325-137c250.735,0,454,203.264,454,454a456.6,456.6,0,0,1-8.135,86Z" transform="translate(-14106 -7554)" fill="#dfdfdf"/>
    <path id="Path_61" data-name="Path 61" d="M12041.817,2924.825l28.085-28.085,28.085,28.085,28.086-28.085,28.085,28.085,28.085-28.085,28.085,28.085,28.086-28.085,28.085,28.085,28.085-28.085,28.085,28.085,28.086-28.085,28.085,28.085,28.085-28.085,28.085,28.085" transform="translate(-11483.01 -1468)" fill="none" stroke="#fff" strokeWidth="7"/>
  </g>
</svg>
