<svg xmlns="http://www.w3.org/2000/svg" xmlns:xlink="http://www.w3.org/1999/xlink" width="15" height="16" viewBox="0 0 15 16">
  <defs>
    <clipPath id="clip-path">
      <rect id="Rectangle_16" data-name="Rectangle 16" width="15" height="16" transform="translate(-0.283 -0.457)" fill="#fff"/>
    </clipPath>
  </defs>
  <g id="Mask_Group_3" data-name="Mask Group 3" transform="translate(0.283 0.457)" clip-path="url(#clip-path)">
    <path id="_003-twitter" data-name="003-twitter" d="M5.628,12.347a12.944,12.944,0,0,1-2-.159,9.383,9.383,0,0,1-2.735-1L0,10.7l.968-.318c1.058-.348,1.7-.564,2.5-.9A3.323,3.323,0,0,1,1.757,7.5l-.225-.683.185.028a3.357,3.357,0,0,1-.42-.518,3.183,3.183,0,0,1-.54-1.892l.042-.6.357.138a3.339,3.339,0,0,1-.324-.907A3.451,3.451,0,0,1,1.2.751L1.511.18l.416.5A7.657,7.657,0,0,0,6.888,3.472,2.967,2.967,0,0,1,7.068,1.9,2.951,2.951,0,0,1,8.268.52,3.6,3.6,0,0,1,10.359.007a3.341,3.341,0,0,1,2.054.847A6.894,6.894,0,0,0,13.165.6c.165-.062.352-.132.586-.213l.862-.3L14.05,1.7l.115-.007.92-.042-.544.743c-.031.043-.039.055-.05.071-.044.066-.1.148-.845,1.145a1.406,1.406,0,0,0-.263.916,8.661,8.661,0,0,1-.473,3.484,6.165,6.165,0,0,1-1.655,2.451,7.309,7.309,0,0,1-3.464,1.675,10.665,10.665,0,0,1-2.164.212Zm0,0" transform="translate(0 1.37)" fill="#fff"/>
  </g>
</svg>
